<svg width="264" height="195" viewBox="0 0 264 195" fill="none" xmlns="http://www.w3.org/2000/svg">
<g filter="url(#filter0_ddd_0_1639)">
<path d="M93.2751 54.5883C93.5481 54.864 93.6164 56.242 93.4799 58.7226C93.4116 61.1343 93.1727 64.235 92.7631 68.0247C92.3535 71.8145 91.8415 76.121 91.2271 80.9443C90.6809 85.7677 90.0665 90.6599 89.3839 95.621C88.7012 100.582 87.9844 105.44 87.2335 110.194C86.5508 114.88 85.8682 119.083 85.1855 122.804C84.5711 126.456 83.9909 129.419 83.4447 131.693C82.9669 133.898 82.5914 135 82.3183 135C81.8405 135 81.2944 134.724 80.68 134.173C80.0656 133.622 79.4512 132.933 78.8368 132.106C78.2906 131.348 77.7786 130.59 77.3008 129.832C76.8912 129.005 76.6523 128.351 76.584 127.868C76.3792 126.973 75.9696 125.25 75.3552 122.701C74.8091 120.151 74.2629 116.981 73.7168 113.192C73.3755 110.711 73.0342 108.093 72.6928 105.337C72.3515 102.994 71.976 100.444 71.5664 97.6882C71.2251 94.8631 70.8838 92.038 70.5424 89.2129C70.2694 91.0044 69.928 93.1405 69.5184 95.621C69.1089 98.1016 68.6993 100.479 68.2897 102.753C67.8118 105.44 67.2998 108.162 66.7537 110.918C66.2758 113.812 65.7638 116.671 65.2177 119.496C64.6716 122.253 64.1254 124.768 63.5793 127.042C63.0332 129.246 62.5212 131.038 62.0433 132.416C61.6337 133.794 61.2924 134.518 61.0193 134.587C60.5415 134.724 59.9612 134.552 59.2785 134.07C58.5959 133.656 57.9132 133.071 57.2306 132.313C56.5479 131.555 55.9335 130.762 55.3874 129.936C54.9095 129.04 54.6023 128.282 54.4658 127.662C53.51 120.909 52.6909 114.845 52.0082 109.471C51.3938 104.096 50.8477 99.3419 50.3698 95.2076C49.8919 91.0044 49.5165 87.3869 49.2434 84.3551C48.9704 81.3233 48.7314 78.7049 48.5266 76.5C48.117 71.4011 47.9464 67.8525 48.0146 65.8542C48.2194 64.4072 48.7656 62.9602 49.653 61.5133C50.5405 59.9973 51.5303 58.6537 52.6226 57.4823C53.7148 56.311 54.7388 55.4152 55.6946 54.7951C56.7186 54.106 57.4012 53.8648 57.7425 54.0716C57.9473 54.2094 58.1521 55.1396 58.3569 56.8622C58.5617 58.5159 58.7324 60.7208 58.8689 63.477C59.0055 66.1643 59.142 69.265 59.2785 72.7792C59.4151 76.2933 59.5175 79.9797 59.5857 83.8383C59.7223 87.6281 59.8247 91.4523 59.8929 95.311C60.0295 99.1696 60.166 102.787 60.3025 106.163C60.5756 104.441 60.8487 102.477 61.1217 100.272C61.463 98.0671 61.8044 95.7588 62.1457 93.3472C62.5553 90.9355 62.9308 88.5583 63.2721 86.2155C63.6134 83.8039 63.9206 81.5989 64.1937 79.6007C64.535 77.6025 64.8422 75.8799 65.1153 74.4329C65.4566 72.9859 65.7297 71.9867 65.9345 71.4355C66.6171 69.8507 67.4022 68.4726 68.2897 67.3012C69.2454 66.1299 70.1328 65.1652 70.952 64.4072C71.8395 63.6493 72.6246 63.0981 73.3072 62.7535C74.0581 62.3401 74.5701 62.1678 74.8432 62.2367C74.9115 62.2367 75.048 62.9602 75.2528 64.4072C75.4576 65.7853 75.6624 67.6113 75.8672 69.8852C76.1403 72.159 76.4133 74.7774 76.6864 77.7403C77.0277 80.6343 77.3691 83.6661 77.7104 86.8357C78.0517 89.9364 78.393 93.0371 78.7344 96.1378C79.0757 99.1696 79.4512 101.926 79.8608 104.406C79.9973 102.133 80.1338 99.6175 80.2704 96.8613C80.4069 94.0362 80.5434 91.1767 80.68 88.2827C80.8848 85.3887 81.0554 82.5636 81.192 79.8074C81.3968 77.0512 81.5674 74.5362 81.7039 72.2624C81.9087 69.9885 82.0794 68.0592 82.2159 66.4744C82.4207 64.8207 82.6255 63.7182 82.8303 63.167C83.2399 61.7889 83.9567 60.5141 84.9807 59.3428C86.0047 58.1025 87.0628 57.1034 88.1551 56.3454C89.3156 55.5186 90.3737 54.9673 91.3295 54.6917C92.3535 54.3472 93.002 54.3127 93.2751 54.5883Z" fill="url(#paint0_linear_0_1639)"/>
<path d="M131.659 106.814C131.776 107.052 131.776 107.706 131.659 108.776C131.541 109.786 131.335 110.886 131.04 112.075C130.805 113.264 130.54 114.393 130.245 115.464C130.01 116.474 129.833 117.069 129.715 117.247C129.421 117.247 129.097 117.247 128.743 117.247C128.449 117.187 128.154 117.158 127.86 117.158C127.565 117.158 127.241 117.128 126.888 117.069C126.711 119.565 126.505 121.914 126.27 124.113C126.034 126.253 125.798 128.096 125.563 129.642C125.327 131.187 125.121 132.406 124.944 133.298C124.768 134.249 124.591 134.724 124.414 134.724C123.943 134.843 123.413 134.635 122.824 134.1C122.294 133.625 121.764 133.03 121.234 132.317C120.704 131.603 120.233 130.86 119.821 130.088C119.408 129.255 119.173 128.542 119.114 127.947C119.055 126.758 118.996 125.51 118.937 124.202C118.937 122.835 118.908 121.587 118.849 120.457C118.79 119.149 118.76 117.841 118.76 116.534C117.641 116.415 116.552 116.326 115.492 116.266C114.432 116.147 113.371 116.028 112.311 115.909C111.781 115.79 111.251 115.731 110.721 115.731C110.191 115.672 109.69 115.582 109.219 115.464C109.101 118.198 108.984 120.725 108.866 123.043C108.748 125.361 108.601 127.383 108.424 129.107C108.306 130.831 108.159 132.168 107.982 133.119C107.865 134.13 107.717 134.665 107.541 134.724C107.069 134.784 106.51 134.576 105.862 134.1C105.214 133.625 104.596 133.03 104.007 132.317C103.477 131.603 102.976 130.86 102.505 130.088C102.093 129.315 101.857 128.631 101.798 128.037C101.68 126.491 101.563 124.916 101.445 123.311C101.327 121.646 101.209 120.13 101.092 118.763C100.974 117.158 100.856 115.582 100.738 114.037C100.267 113.977 99.7958 113.888 99.3246 113.769C98.9124 113.65 98.4706 113.561 97.9995 113.502C97.5872 113.442 97.2044 113.353 96.851 113.234C96.6154 113.115 96.2915 112.878 95.8792 112.521C95.4669 112.105 95.0547 111.659 94.6424 111.183C94.2301 110.708 93.8767 110.262 93.5822 109.846C93.2878 109.37 93.1405 109.014 93.1405 108.776C93.1405 108.657 93.7884 108.508 95.0841 108.33C96.4387 108.152 98.2056 108.003 100.385 107.884C100.149 104.436 99.9136 100.929 99.678 97.3619C99.5013 93.7356 99.3541 90.3768 99.2363 87.2856C99.1185 84.1349 99.0596 81.4003 99.0596 79.0819C99.0596 76.704 99.1479 75.0692 99.3246 74.1775C99.5602 72.9291 100.12 71.7402 101.003 70.6107C101.946 69.4217 102.947 68.3814 104.007 67.4897C105.067 66.598 106.068 65.9144 107.011 65.4388C107.953 64.9632 108.571 64.8146 108.866 64.9929C109.043 65.1713 109.19 65.8846 109.308 67.133C109.484 68.3814 109.602 70.0459 109.661 72.1266C109.779 74.2072 109.838 76.6148 109.838 79.3494C109.838 82.084 109.838 84.9969 109.838 88.0881C109.838 91.1199 109.779 94.3004 109.661 97.6294C109.602 100.899 109.543 104.139 109.484 107.349C111.016 107.23 112.517 107.141 113.99 107.081C115.521 107.022 117.023 106.933 118.495 106.814C118.436 103.425 118.378 99.9776 118.319 96.4702C118.319 92.9628 118.319 89.6932 118.319 86.6614C118.319 83.6296 118.378 80.9842 118.495 78.7252C118.613 76.4662 118.76 74.8909 118.937 73.9992C119.232 72.7508 119.85 71.5618 120.792 70.4323C121.794 69.3028 122.824 68.322 123.884 67.4897C125.003 66.598 126.034 65.9441 126.976 65.528C127.978 65.1118 128.626 65.0227 128.92 65.2604C129.214 65.4388 129.391 66.8358 129.45 69.4515C129.509 72.0077 129.45 75.2476 129.273 79.1711C129.156 83.0946 128.949 87.4937 128.655 92.3683C128.419 97.1835 128.125 101.939 127.772 106.636C130.127 106.636 131.423 106.695 131.659 106.814Z" fill="url(#paint1_linear_0_1639)"/>
<path d="M161.621 84.0815C161.402 84.3585 160.057 84.3862 157.588 84.1646C155.118 83.943 151.222 83.583 145.898 83.0844C145.898 84.9124 145.898 87.1559 145.898 89.8148C145.953 92.4737 145.953 95.3265 145.898 98.3732C150.014 98.7609 153.225 99.121 155.53 99.4533C157.835 99.7857 159.042 100.007 159.152 100.118C159.371 100.34 159.454 100.81 159.399 101.531C159.344 102.195 159.207 102.943 158.987 103.774C158.768 104.605 158.493 105.408 158.164 106.184C157.835 106.904 157.505 107.375 157.176 107.596C156.902 107.707 155.804 107.873 153.883 108.095C152.017 108.261 149.356 108.427 145.898 108.593C145.898 110.975 145.871 113.33 145.816 115.656C145.816 117.983 145.788 120.115 145.734 122.054C151.057 122.109 154.926 122.22 157.341 122.386C159.81 122.497 161.155 122.663 161.375 122.885C161.594 123.162 161.594 123.688 161.375 124.464C161.21 125.239 160.908 126.07 160.469 126.956C160.085 127.787 159.646 128.618 159.152 129.449C158.713 130.28 158.356 130.862 158.082 131.194C157.972 131.305 157.313 131.36 156.106 131.36C154.899 131.305 153.554 131.222 152.072 131.111C150.59 131 149.164 130.889 147.792 130.779C146.42 130.612 145.514 130.474 145.075 130.363C144.252 130.086 143.374 129.643 142.441 129.034C141.508 128.369 140.767 127.538 140.218 126.541C140.108 126.264 139.916 125.35 139.642 123.799C139.422 122.193 139.175 120.171 138.901 117.733C138.626 115.296 138.352 112.554 138.078 109.507C137.803 106.461 137.529 103.359 137.254 100.201C136.98 97.0437 136.733 93.9416 136.514 90.895C136.294 87.8483 136.102 85.1063 135.937 82.669C135.828 80.1763 135.773 78.1267 135.773 76.5203C135.773 74.8584 135.855 73.8614 136.02 73.529C136.184 73.0858 136.953 72.7535 138.325 72.5319C139.697 72.3103 141.343 72.1718 143.264 72.1165C145.185 72.0057 147.243 71.978 149.438 72.0334C151.688 72.0888 153.774 72.1995 155.694 72.3657C157.615 72.4765 159.234 72.6427 160.551 72.8643C161.868 73.0305 162.609 73.1966 162.774 73.3628C162.993 73.6398 163.103 74.2768 163.103 75.2739C163.158 76.271 163.103 77.3789 162.939 78.5975C162.829 79.7608 162.637 80.8964 162.362 82.0043C162.143 83.0567 161.896 83.7492 161.621 84.0815Z" fill="url(#paint2_linear_0_1639)"/>
<path d="M189.006 86.404C188.797 86.6675 187.518 86.6938 185.169 86.4831C182.82 86.2723 179.114 85.9298 174.05 85.4556C174.05 87.1944 174.05 89.3284 174.05 91.8576C174.102 94.3868 174.102 97.1004 174.05 99.9985C177.965 100.367 181.019 100.71 183.212 101.026C185.404 101.342 186.553 101.553 186.657 101.658C186.866 101.869 186.944 102.317 186.892 103.002C186.84 103.634 186.709 104.346 186.5 105.136C186.292 105.926 186.031 106.69 185.717 107.428C185.404 108.113 185.091 108.561 184.778 108.772C184.517 108.877 183.473 109.035 181.646 109.246C179.871 109.404 177.339 109.562 174.05 109.72C174.05 111.986 174.024 114.225 173.972 116.438C173.972 118.651 173.946 120.68 173.893 122.524C178.957 122.577 182.637 122.682 184.934 122.84C187.284 122.946 188.562 123.104 188.771 123.315C188.98 123.578 188.98 124.079 188.771 124.816C188.615 125.554 188.328 126.344 187.91 127.187C187.545 127.978 187.127 128.768 186.657 129.559C186.239 130.349 185.9 130.902 185.639 131.218C185.535 131.324 184.908 131.376 183.76 131.376C182.611 131.324 181.332 131.245 179.923 131.139C178.513 131.034 177.156 130.929 175.851 130.823C174.546 130.665 173.684 130.533 173.267 130.428C172.484 130.165 171.649 129.743 170.761 129.163C169.874 128.531 169.169 127.741 168.647 126.792C168.542 126.529 168.36 125.659 168.099 124.184C167.89 122.656 167.655 120.733 167.394 118.414C167.133 116.096 166.872 113.488 166.611 110.59C166.35 107.691 166.089 104.741 165.828 101.737C165.567 98.7339 165.332 95.7832 165.123 92.8851C164.914 89.9871 164.732 87.3788 164.575 85.0604C164.471 82.6893 164.418 80.7397 164.418 79.2116C164.418 77.6308 164.497 76.6824 164.653 76.3662C164.81 75.9447 165.541 75.6286 166.846 75.4178C168.151 75.207 169.717 75.0753 171.544 75.0226C173.371 74.9172 175.329 74.8909 177.417 74.9436C179.557 74.9963 181.541 75.1016 183.368 75.2597C185.195 75.3651 186.735 75.5232 187.988 75.7339C189.241 75.892 189.946 76.0501 190.102 76.2082C190.311 76.4716 190.416 77.0776 190.416 78.026C190.468 78.9745 190.416 80.0283 190.259 81.1875C190.155 82.2941 189.972 83.3742 189.711 84.4281C189.502 85.4292 189.267 86.0879 189.006 86.404Z" fill="url(#paint3_linear_0_1639)"/>
<path d="M193.211 133.954C193.114 133.711 193.066 132.836 193.066 131.328C193.066 129.82 193.066 127.923 193.066 125.637C193.114 123.351 193.162 120.798 193.211 117.977C193.307 115.107 193.379 112.213 193.427 109.295C193.524 106.328 193.62 103.458 193.717 100.686C193.813 97.8645 193.885 95.3596 193.933 93.1709C194.03 90.9821 194.102 89.2068 194.15 87.8449C194.198 86.4344 194.247 85.6805 194.295 85.5832C194.343 85.3887 194.56 84.9023 194.945 84.1241C195.331 83.3459 195.765 82.5433 196.246 81.7165C196.777 80.841 197.307 80.0871 197.837 79.4548C198.367 78.7739 198.824 78.4577 199.21 78.5063C199.355 78.555 199.475 79.5277 199.571 81.4247C199.716 83.2729 199.836 85.6562 199.933 88.5745C200.077 91.4928 200.174 94.7273 200.222 98.2779C200.318 101.78 200.391 105.209 200.439 108.565C200.535 111.872 200.607 114.888 200.656 117.612C200.704 120.287 200.752 122.257 200.8 123.521C202.342 123.667 203.884 123.789 205.426 123.886C207.016 123.983 208.438 124.105 209.691 124.251C210.944 124.348 211.956 124.445 212.727 124.543C213.546 124.64 213.98 124.713 214.028 124.762C214.172 124.956 214.365 125.418 214.606 126.148C214.895 126.829 215.16 127.583 215.401 128.409C215.642 129.188 215.811 129.917 215.907 130.598C216.052 131.279 216.028 131.693 215.835 131.838C210.293 132.86 206.004 133.541 202.969 133.881C199.933 134.222 197.692 134.392 196.246 134.392C194.56 134.392 193.548 134.246 193.211 133.954Z" fill="url(#paint4_linear_0_1639)"/>
</g>
<path d="M77.2468 38.5458C78.1652 39.1074 79.0808 39.7103 79.9936 40.3546C80.9478 41.0018 81.8206 41.6226 82.612 42.2171C83.4062 42.7701 84.0569 43.2927 84.5642 43.7847C85.1156 44.2381 85.4657 44.5946 85.6144 44.8542C85.7989 45.1995 85.8672 45.724 85.8194 46.4278C85.7743 47.0902 85.6616 47.8312 85.4811 48.6507C85.3448 49.4317 85.1464 50.2084 84.886 50.981C84.6283 51.7121 84.3598 52.2969 84.0804 52.7354C83.7512 53.2953 83.0382 53.9955 81.9413 54.8359C80.8858 55.6791 79.7061 56.5139 78.4022 57.3403C77.0983 58.1666 75.8221 58.8909 74.5737 59.5131C73.3666 60.138 72.447 60.5122 71.8147 60.6356C71.3509 60.7288 70.6594 60.8066 69.7401 60.8689C68.8623 60.934 67.9445 60.9756 66.9866 60.9936C66.0288 61.0117 65.1552 61.0147 64.3658 61.0026C63.6206 60.9519 63.168 60.8796 63.0081 60.7855C62.6909 60.556 62.4223 60.2258 62.202 59.7949C62.0231 59.3669 61.9562 58.8216 62.0013 58.1592C62.1826 56.7159 62.4157 55.7336 62.7007 55.2123C62.792 55.0937 62.8997 55.0386 63.0239 55.0471C63.1509 55.0141 63.3593 55.0075 63.6491 55.0272C63.9389 55.0469 64.3115 55.0722 64.7669 55.1032C65.2223 55.1341 65.824 55.1542 66.572 55.1635C66.5085 53.0381 66.4587 51.0175 66.4226 49.1019C66.3865 47.1862 66.3556 45.4997 66.3299 44.0423C66.2797 42.3336 66.2638 40.7313 66.2823 39.2353C66.2981 37.7807 66.2836 36.1577 66.239 34.3662C66.219 32.826 66.1951 31.036 66.1674 28.9961C66.1397 26.9563 66.1026 24.7495 66.056 22.3756C65.6834 22.3503 65.2488 22.3207 64.752 22.287C64.2552 22.2532 63.7584 22.2194 63.2616 22.1856C62.809 22.1133 62.4185 22.0451 62.0901 21.9812C61.7232 21.8731 61.5025 21.7541 61.4281 21.6243C61.2794 21.3646 61.1862 20.9008 61.1484 20.2328C61.1135 19.5234 61.1185 18.8375 61.1636 18.1751C61.2114 17.4713 61.382 16.7966 61.6755 16.1511C61.9717 15.4642 62.2925 15.0285 62.6377 14.844C62.7233 14.8083 63.0545 14.8308 63.6313 14.9116C64.2109 14.951 64.9105 15.0609 65.73 15.2414C66.5524 15.3805 67.434 15.5652 68.375 15.7956C69.3601 15.9873 70.2818 16.1955 71.1399 16.4202C72.0008 16.6035 72.7583 16.7798 73.4122 16.949C74.0662 17.1183 74.5159 17.232 74.7615 17.2903C75.1699 17.4013 75.941 17.6824 77.0749 18.1338C78.2529 18.5466 79.5096 19.0272 80.8448 19.5755C82.18 20.1237 83.4489 20.7299 84.6515 21.3939C85.8569 22.0165 86.6897 22.6138 87.1499 23.1858C87.3428 23.4069 87.4897 23.9991 87.5906 24.9626C87.7329 25.9288 87.806 26.9944 87.81 28.1592C87.8554 29.3268 87.8222 30.4267 87.7104 31.4589C87.6429 32.4525 87.4943 33.1079 87.2648 33.425C87.0823 33.6621 86.4732 34.0574 85.4374 34.6109C84.4016 35.1643 83.2609 35.7314 82.0153 36.3122C80.5984 36.9645 79.0089 37.709 77.2468 38.5458ZM72.6117 36.983C73.1668 36.7712 73.9251 36.3236 74.8865 35.6404C75.8894 34.9599 76.8771 34.1953 77.8498 33.3464C78.8668 32.4589 79.7388 31.5616 80.4659 30.6545C81.2373 29.7087 81.6469 28.884 81.6947 28.1802C81.7088 27.9732 81.4994 27.6886 81.0665 27.3264C80.675 26.9671 80.1179 26.5965 79.3953 26.2146C78.6726 25.8328 77.805 25.4411 76.7925 25.0395C75.8243 24.5994 74.7704 24.195 73.6309 23.8264L72.6117 36.983ZM71.338 54.8013C72.514 54.6317 73.6379 54.313 74.7094 53.8451C75.781 53.3773 76.7312 52.8596 77.56 52.2921C78.3916 51.6832 79.0577 51.063 79.5581 50.4316C80.0585 49.8002 80.327 49.2153 80.3636 48.6772C80.4002 48.139 80.0891 47.5147 79.4304 46.8045C78.813 46.0971 78.0507 45.3798 77.1436 44.6527C76.2778 43.9284 75.3871 43.2647 74.4715 42.6618C73.5559 42.0589 72.8375 41.6149 72.3162 41.3299L71.338 54.8013Z" fill="url(#paint5_linear_0_1639)"/>
<path d="M108.631 22.2031C108.975 22.5404 109.272 23.1623 109.525 24.069C109.829 24.9792 110.069 26.0682 110.245 27.3359C110.42 28.6036 110.562 29.9737 110.671 31.4462C110.781 32.9186 110.866 34.3633 110.926 35.7802C110.987 37.1971 111.001 38.5323 110.968 39.7858C110.991 40.9908 111.001 41.9857 111 42.7705C110.989 43.7115 110.948 44.7029 110.877 45.7446C110.861 46.7377 110.796 47.7012 110.68 48.6352C110.62 49.5206 110.513 50.3243 110.359 51.0464C110.258 51.7721 110.116 52.3118 109.935 52.6658C109.57 53.4258 108.986 53.9355 108.183 54.1949C107.436 54.4057 106.59 54.5314 105.646 54.5718C105.174 54.592 104.365 54.5632 103.219 54.4853C102.129 54.3588 100.934 54.2253 99.6356 54.0847C98.3927 53.8956 97.2018 53.71 96.0631 53.5279C94.9243 53.3458 94.072 53.1832 93.5062 53.0401C92.3781 52.7018 91.5678 52.3066 91.0753 51.8545C90.6348 51.406 90.2068 50.7752 89.7912 49.9621C89.6562 49.6389 89.5791 48.8488 89.5599 47.5918C89.5442 46.2826 89.5706 44.7408 89.6389 42.9665C89.7628 41.1435 89.9216 39.1922 90.1153 37.1124C90.3091 35.0326 90.5217 33.0588 90.7534 31.1908C91.0371 29.3265 91.3049 27.6965 91.5567 26.3008C91.8607 24.9088 92.1848 23.989 92.5292 23.5415C93.0996 22.8477 94.031 22.2308 95.3235 21.6908C96.6681 21.1543 97.8736 20.7392 98.9401 20.4454C99.4715 20.3246 100.156 20.2664 100.993 20.271C101.885 20.227 102.797 20.289 103.727 20.4569C104.713 20.5763 105.64 20.7963 106.508 21.1169C107.379 21.3854 108.087 21.7475 108.631 22.2031ZM102.61 46.1244C102.728 45.9231 102.875 45.3052 103.05 44.2706C103.28 43.1875 103.473 41.8925 103.628 40.3856C103.835 38.8823 103.997 37.2712 104.113 35.5525C104.282 33.8373 104.416 32.2505 104.516 30.7922C104.615 29.3339 104.646 28.1064 104.609 27.1097C104.576 26.061 104.486 25.4531 104.34 25.2863C104.094 25.0602 103.709 24.9555 103.185 24.9722C102.716 24.9404 102.216 24.9848 101.684 25.1057C101.156 25.1744 100.677 25.2988 100.246 25.4788C99.8188 25.6068 99.5217 25.7435 99.3548 25.8892C98.6388 26.416 98.2105 27.3288 98.0699 28.6273C98.0451 28.9919 97.9222 30.03 97.7012 31.7417C97.5358 33.4048 97.3858 35.2259 97.2513 37.2051C97.1203 39.1322 97.0241 40.9308 96.9629 42.601C96.9538 44.2748 97.067 45.3028 97.3027 45.6851C97.5383 46.0674 97.8834 46.3786 98.338 46.6188C98.8482 46.8105 99.3637 46.924 99.8845 46.9594C100.457 46.9984 100.984 46.9556 101.463 46.8313C101.998 46.6583 102.38 46.4227 102.61 46.1244Z" fill="url(#paint6_linear_0_1639)"/>
<path d="M139.574 32.6665C139.514 33.5425 139.319 34.7944 138.989 36.4222C138.713 38.0536 138.343 39.8438 137.881 41.7926C137.422 43.6866 136.93 45.661 136.406 47.7156C135.939 49.7192 135.457 51.5566 134.958 53.2279C134.514 54.903 134.116 56.3061 133.764 57.4373C133.467 58.5723 133.288 59.1926 133.225 59.2984C133.105 59.4553 132.796 59.5443 132.3 59.5655C131.862 59.5358 131.345 59.4456 130.75 59.2952C130.21 59.1485 129.701 58.9488 129.223 58.6963C128.8 58.4475 128.545 58.1551 128.458 57.8192C128.418 57.5964 128.443 56.828 128.532 55.5139C128.676 54.2035 128.837 52.6467 129.014 50.8436C129.251 48.9894 129.494 47.0257 129.745 44.9525C130 42.8245 130.243 40.8608 130.476 39.0613C130.766 37.2109 130.984 35.6304 131.128 34.3201C131.327 33.0134 131.436 32.2232 131.454 31.9494C131.521 30.9638 131.475 30.0256 131.315 29.1346C131.214 28.1926 131.049 27.3838 130.82 26.7081C130.591 26.0325 130.296 25.5174 129.935 25.1628C129.633 24.7572 129.341 24.5998 129.06 24.6907C128.34 24.7518 127.725 24.9025 127.214 25.1428C126.706 25.3283 126.279 25.5468 125.932 25.7982C125.526 26.1007 125.199 26.4635 124.95 26.8866C124.888 26.9924 124.756 27.3135 124.554 27.8499C124.408 28.39 124.31 29.0159 124.262 29.7277C124.247 29.9467 124.193 30.7407 124.1 32.1095C124.01 33.4236 123.875 35.0096 123.694 36.8676C123.567 38.7292 123.402 40.7532 123.198 42.9397C123.053 45.0751 122.89 47.0718 122.709 48.9297C122.586 50.7366 122.452 52.2952 122.308 53.6056C122.164 54.916 122.059 55.6514 121.993 55.812C121.861 56.1331 121.556 56.5799 121.077 57.1524C120.602 57.6701 120.074 58.1568 119.493 58.6124C118.912 59.0679 118.365 59.4158 117.854 59.6561C117.346 59.8416 117.021 59.7645 116.88 59.4248C116.726 59.2494 116.616 58.4443 116.549 57.0095C116.485 55.52 116.414 53.7275 116.337 51.6319C116.318 49.4853 116.282 47.1726 116.231 44.6938C116.183 42.1602 116.155 39.738 116.147 37.4272C116.139 35.1163 116.144 33.0263 116.161 31.1573C116.178 29.2882 116.187 27.9411 116.188 27.1161C116.212 25.9625 116.244 24.6721 116.286 23.2447C116.332 21.7626 116.37 20.3901 116.401 19.127C116.491 17.8129 116.567 16.6904 116.63 15.7596C116.752 14.7778 116.902 14.1829 117.082 13.9751C117.206 13.7635 117.566 13.7329 118.16 13.8834C118.81 14.0376 119.48 14.3031 120.169 14.68C120.917 15.0059 121.605 15.4102 122.232 15.8929C122.863 16.3209 123.275 16.7339 123.468 17.1321C123.555 17.4681 123.666 17.8606 123.8 18.3098C123.938 18.7043 124.031 19.3706 124.077 20.3089C125.045 19.8247 126.091 19.4007 127.216 19.0371C128.345 18.6188 129.437 18.3355 130.492 18.1872C131.606 17.9879 132.652 17.9765 133.63 18.153C134.612 18.2747 135.469 18.6081 136.202 19.153C136.669 19.5698 137.117 20.2603 137.546 21.2246C138.031 22.1927 138.422 23.3194 138.719 24.6048C139.072 25.8939 139.309 27.2577 139.431 28.6962C139.612 30.0837 139.66 31.4071 139.574 32.6665Z" fill="url(#paint7_linear_0_1639)"/>
<path d="M165.14 21.6033C165.245 21.7875 165.366 22.6222 165.501 24.1072C165.636 25.5922 165.747 27.4297 165.834 29.6198C165.98 31.814 166.085 34.1824 166.148 36.725C166.27 39.2717 166.371 41.6989 166.45 44.0065C166.588 46.3182 166.683 48.3908 166.736 50.2243C166.788 52.0579 166.851 53.3019 166.925 53.9562C167.029 55.0259 167.155 56.2151 167.302 57.5238C167.453 58.7737 167.577 59.9923 167.674 61.1795C167.774 62.308 167.826 63.2855 167.828 64.1121C167.89 64.9428 167.827 65.4402 167.638 65.6045C167.509 65.7728 167.035 65.7996 166.216 65.6849C165.401 65.5115 164.503 65.2733 163.52 64.9703C162.599 64.6126 161.711 64.2275 160.853 63.815C160.059 63.3478 159.556 62.9299 159.345 62.5613C159.13 62.2516 158.924 61.7949 158.729 61.1913C158.593 60.5917 158.428 59.5474 158.234 58.0584C157.528 58.8959 156.759 59.7881 155.927 60.7351C155.158 61.6274 154.393 62.4608 153.632 63.2355C152.875 63.9515 152.186 64.5245 151.567 64.9547C150.947 65.3848 150.49 65.5899 150.197 65.5699C149.727 65.5379 149.053 65.0199 148.177 64.0158C147.305 62.953 146.441 61.7726 145.584 60.4747C144.728 59.1768 143.956 57.9437 143.268 56.7753C142.58 55.6069 142.219 54.8445 142.184 54.4879C142.09 54.1274 142.097 53.1538 142.205 51.5673C142.372 49.9847 142.55 48.2259 142.741 46.2908C142.994 44.3009 143.246 42.3404 143.495 40.4093C143.748 38.4195 143.974 36.8409 144.171 35.6737C144.369 34.5065 144.574 33.2217 144.787 31.8195C145.064 30.3624 145.332 29.0229 145.592 27.8009C145.856 26.5202 146.079 25.4137 146.26 24.4815C146.501 23.5534 146.685 23.0051 146.815 22.8368C146.944 22.6685 147.274 22.6024 147.802 22.6383C148.394 22.6195 148.98 22.6888 149.559 22.8463C150.202 22.949 150.779 23.1358 151.292 23.4068C151.809 23.6191 152.146 23.8781 152.302 24.1839C152.403 24.4269 152.41 25.1948 152.322 26.4875C152.297 27.7255 152.223 29.2553 152.099 31.0768C151.979 32.8397 151.847 34.7788 151.703 36.8941C151.564 38.9508 151.402 40.8879 151.22 42.7055C151.1 44.4683 150.967 45.9941 150.82 47.2828C150.736 48.5168 150.686 49.2513 150.67 49.4863C150.638 49.9564 150.841 50.8852 151.278 52.2726C151.774 53.6641 152.273 54.9967 152.777 56.2707L157.732 51.1175C157.745 50.0558 157.778 48.7003 157.831 47.051C157.943 45.4058 158.031 43.6703 158.097 41.8447C158.162 40.0192 158.229 38.1642 158.298 36.2799C158.367 34.3955 158.453 32.6895 158.557 31.1617C158.661 29.6339 158.747 28.3706 158.815 27.3717C158.883 26.3727 158.952 25.7871 159.023 25.6148C159.223 25.2742 159.608 24.8281 160.176 24.2765C160.745 23.7248 161.371 23.2065 162.053 22.7216C162.735 22.2367 163.351 21.8654 163.9 21.6075C164.507 21.3537 164.921 21.3522 165.14 21.6033Z" fill="url(#paint8_linear_0_1639)"/>
<path d="M204.534 21.1581C204.551 21.9119 204.336 23.0605 203.889 24.6039C203.51 26.1519 202.961 27.6883 202.241 29.2131C201.59 30.7426 200.748 32.0538 199.716 33.1468C198.752 34.2445 197.691 34.754 196.533 34.6752C195.716 34.6197 195.079 33.9263 194.622 32.5952C194.233 31.2687 193.96 29.7449 193.803 28.0236C193.72 26.2389 193.667 24.4906 193.647 22.7786C193.626 21.0666 193.571 19.8654 193.481 19.1751C193.3 18.8206 192.912 18.4864 192.318 18.1723C191.796 17.7947 191.263 17.5874 190.718 17.5503C190.173 17.5133 189.53 17.9143 188.789 18.7534C188.047 19.5925 187.297 20.5679 186.537 21.6794C185.845 22.7956 185.222 23.9164 184.666 25.0418C184.179 26.1719 183.951 27.0117 183.982 27.5612C183.954 27.9698 184.348 28.7151 185.164 29.7969C185.98 30.8787 186.986 32.1788 188.183 33.6971C189.453 35.1518 190.781 36.7475 192.169 38.484C193.629 40.157 194.95 41.8548 196.133 43.5773C197.321 45.2318 198.308 46.8043 199.097 48.2948C199.953 49.7899 200.38 51.0506 200.379 52.0768C200.364 53.3074 199.917 54.8508 199.038 56.7069C198.227 58.5677 197.217 60.3464 196.007 62.0431C194.796 63.7399 193.534 65.1936 192.221 66.4043C190.907 67.6151 189.771 68.2221 188.812 68.2254C187.854 68.2286 186.493 67.6229 184.728 66.4081C183.036 65.1299 181.321 63.6791 179.584 62.0557C177.92 60.3688 176.423 58.7275 175.095 57.1319C173.835 55.5409 173.125 54.3979 172.967 53.7029C172.805 53.076 172.724 52.2495 172.725 51.2232C172.795 50.2016 172.898 49.1822 173.036 48.1652C173.242 47.1529 173.504 46.3154 173.823 45.6528C174.146 44.9222 174.512 44.5707 174.921 44.5985C175.329 44.6263 176.098 45.397 177.227 46.9106C178.36 48.3561 179.582 50.0129 180.892 51.881C182.206 53.681 183.496 55.3424 184.761 56.8653C186.03 58.3201 186.972 59.0683 187.585 59.11C187.925 59.1331 188.316 58.9202 188.757 58.4712C189.203 57.9541 189.619 57.3666 190.006 56.7087C190.393 56.0507 190.711 55.3882 190.962 54.721C191.285 53.9903 191.461 53.4206 191.489 53.012C191.462 52.3944 190.978 51.4719 190.035 50.2446C189.092 49.0173 187.886 47.6353 186.417 46.0985C184.947 44.5617 183.346 42.9475 181.614 41.256C179.886 39.4964 178.288 37.8482 176.818 36.3114C175.349 34.7746 174.143 33.3926 173.2 32.1652C172.257 30.9379 171.772 30.0155 171.746 29.3979C171.72 28.7803 171.989 27.8406 172.553 26.579C173.123 25.2492 173.835 23.8265 174.691 22.311C175.551 20.7273 176.516 19.1165 177.585 17.4786C178.723 15.8453 179.851 14.3483 180.97 12.9875C182.089 11.6266 183.155 10.5359 184.169 9.71532C185.255 8.83125 186.173 8.41468 186.922 8.46562C188.421 8.56748 190.164 9.09653 192.151 10.0527C194.207 11.0136 196.147 12.1718 197.971 13.5274C199.799 14.8149 201.35 16.152 202.624 17.5387C203.899 18.9254 204.535 20.1318 204.534 21.1581Z" fill="url(#paint9_linear_0_1639)"/>
<defs>
<filter id="filter0_ddd_0_1639" x="0" y="18" width="264" height="177" filterUnits="userSpaceOnUse" color-interpolation-filters="sRGB">
<feFlood flood-opacity="0" result="BackgroundImageFix"/>
<feColorMatrix in="SourceAlpha" type="matrix" values="0 0 0 0 0 0 0 0 0 0 0 0 0 0 0 0 0 0 127 0" result="hardAlpha"/>
<feOffset dy="12"/>
<feGaussianBlur stdDeviation="24"/>
<feComposite in2="hardAlpha" operator="out"/>
<feColorMatrix type="matrix" values="0 0 0 0 0 0 0 0 0 0 0 0 0 0 0 0 0 0 0.45 0"/>
<feBlend mode="normal" in2="BackgroundImageFix" result="effect1_dropShadow_0_1639"/>
<feColorMatrix in="SourceAlpha" type="matrix" values="0 0 0 0 0 0 0 0 0 0 0 0 0 0 0 0 0 0 127 0" result="hardAlpha"/>
<feOffset/>
<feGaussianBlur stdDeviation="11"/>
<feComposite in2="hardAlpha" operator="out"/>
<feColorMatrix type="matrix" values="0 0 0 0 0.4625 0 0 0 0 0.0555 0 0 0 0 0 0 0 0 0.35 0"/>
<feBlend mode="normal" in2="effect1_dropShadow_0_1639" result="effect2_dropShadow_0_1639"/>
<feColorMatrix in="SourceAlpha" type="matrix" values="0 0 0 0 0 0 0 0 0 0 0 0 0 0 0 0 0 0 127 0" result="hardAlpha"/>
<feOffset/>
<feGaussianBlur stdDeviation="6"/>
<feComposite in2="hardAlpha" operator="out"/>
<feColorMatrix type="matrix" values="0 0 0 0 0.520833 0 0 0 0 0.03125 0 0 0 0 0 0 0 0 1 0"/>
<feBlend mode="normal" in2="effect2_dropShadow_0_1639" result="effect3_dropShadow_0_1639"/>
<feBlend mode="normal" in="SourceGraphic" in2="effect3_dropShadow_0_1639" result="shape"/>
</filter>
<linearGradient id="paint0_linear_0_1639" x1="216" y1="54" x2="130.02" y2="213.276" gradientUnits="userSpaceOnUse">
<stop offset="0.141656" stop-color="#FFC977"/>
<stop offset="0.90919" stop-color="#D74214"/>
</linearGradient>
<linearGradient id="paint1_linear_0_1639" x1="216" y1="54" x2="130.02" y2="213.276" gradientUnits="userSpaceOnUse">
<stop offset="0.141656" stop-color="#FFC977"/>
<stop offset="0.90919" stop-color="#D74214"/>
</linearGradient>
<linearGradient id="paint2_linear_0_1639" x1="216" y1="54" x2="130.02" y2="213.276" gradientUnits="userSpaceOnUse">
<stop offset="0.141656" stop-color="#FFC977"/>
<stop offset="0.90919" stop-color="#D74214"/>
</linearGradient>
<linearGradient id="paint3_linear_0_1639" x1="216" y1="54" x2="130.02" y2="213.276" gradientUnits="userSpaceOnUse">
<stop offset="0.141656" stop-color="#FFC977"/>
<stop offset="0.90919" stop-color="#D74214"/>
</linearGradient>
<linearGradient id="paint4_linear_0_1639" x1="216" y1="54" x2="130.02" y2="213.276" gradientUnits="userSpaceOnUse">
<stop offset="0.141656" stop-color="#FFC977"/>
<stop offset="0.90919" stop-color="#D74214"/>
</linearGradient>
<linearGradient id="paint5_linear_0_1639" x1="133.864" y1="4.85848" x2="129.745" y2="65.4474" gradientUnits="userSpaceOnUse">
<stop offset="0.352212" stop-color="#E2E2F0"/>
<stop offset="1" stop-color="#9393A6"/>
</linearGradient>
<linearGradient id="paint6_linear_0_1639" x1="133.864" y1="4.85848" x2="129.745" y2="65.4474" gradientUnits="userSpaceOnUse">
<stop offset="0.352212" stop-color="#E2E2F0"/>
<stop offset="1" stop-color="#9393A6"/>
</linearGradient>
<linearGradient id="paint7_linear_0_1639" x1="133.864" y1="4.85848" x2="129.745" y2="65.4474" gradientUnits="userSpaceOnUse">
<stop offset="0.352212" stop-color="#E2E2F0"/>
<stop offset="1" stop-color="#9393A6"/>
</linearGradient>
<linearGradient id="paint8_linear_0_1639" x1="133.864" y1="4.85848" x2="129.745" y2="65.4474" gradientUnits="userSpaceOnUse">
<stop offset="0.352212" stop-color="#E2E2F0"/>
<stop offset="1" stop-color="#9393A6"/>
</linearGradient>
<linearGradient id="paint9_linear_0_1639" x1="133.864" y1="4.85848" x2="129.745" y2="65.4474" gradientUnits="userSpaceOnUse">
<stop offset="0.352212" stop-color="#E2E2F0"/>
<stop offset="1" stop-color="#9393A6"/>
</linearGradient>
</defs>
</svg>
